<?xml version="1.0" standalone="no"?>
<!DOCTYPE svg PUBLIC "-//W3C//DTD SVG 20010904//EN"
 "http://www.w3.org/TR/2001/REC-SVG-20010904/DTD/svg10.dtd">
<svg version="1.0" xmlns="http://www.w3.org/2000/svg"
 width="78.000000pt" height="78.000000pt" viewBox="0 0 78.000000 78.000000"
 preserveAspectRatio="xMidYMid meet">
<metadata>
Created by potrace 1.14, written by Peter Selinger 2001-2017
</metadata>
<g transform="translate(0.000000,78.000000) scale(0.100000,-0.100000)"
fill="#000000" stroke="none">
<path d="M243 758 c-18 -23 -26 -52 -30 -107 -4 -54 -26 -101 -46 -101 -7 0
-28 -18 -48 -40 -20 -22 -33 -40 -28 -40 5 0 9 -7 9 -16 0 -8 -4 -13 -8 -10
-5 3 -9 -10 -10 -29 -1 -33 14 -68 64 -145 12 -19 25 -48 29 -65 3 -16 19 -48
36 -70 16 -22 37 -52 46 -66 25 -40 75 -63 115 -54 18 3 59 7 91 8 53 2 62 5
89 36 26 30 30 39 25 75 -6 38 -4 43 25 59 24 14 33 15 39 5 9 -14 11 -13 27
25 7 16 17 25 23 22 19 -13 8 155 -14 205 -11 25 -21 72 -22 105 -4 82 -12
129 -29 170 -25 58 -55 47 -132 -50 -14 -18 -27 -26 -32 -20 -4 6 -27 11 -52
13 -32 2 -50 9 -63 25 -62 76 -84 90 -104 65z"/>
</g>
</svg>
